<svg version="1.1" id="biscotti" xmlns="http://www.w3.org/2000/svg" xmlns:xlink="http://www.w3.org/1999/xlink" x="0px" y="0px" viewBox="0 0 595.28 595.28" style="enable-background:new 0 0 595.28 595.28;" xml:space="preserve"><style type="text/css">.st0{display:none;fill:#FAFAFA;}.st1{opacity:0.55;fill:#B4DEE6;stroke:#87BFCC;stroke-miterlimit:10;}.st2{fill:#EAB275;}.st3{fill:#E0AA75;}.st4{fill:#5E2712;}.st5{fill:#FBC47E;}.st6{fill:#5B2D11;}.st7{display:none;}.st8{display:inline;fill:#5E2712;}.st9{opacity:0.05;fill:#B4DEE6;stroke:#87BFCC;stroke-miterlimit:10;}.st10{opacity:0.24;fill:#FFFFFF;}.st11{opacity:0.41;fill:#FFFFFF;}.st12{fill:#B1DAE1;}.st13{opacity:0.49;}.st14{fill:#FFFFFF;}</style><rect id="sfondo_3_" x="40.49" y="14.29" class="st0" width="514.3" height="566.7"></rect><path id="corpo_barattolo" class="st1" d="M476.48,531.21c-0.15,0-0.28-0.01-0.42-0.01H475l-179.16-0.02h-23.93l-40.89-0.01h-49.28l-60.72-0.01c-1.18,0-2.36,0.06-3.53,0.18c-0.12,0.01-0.24,0.02-0.36,0.03c-0.03,0-0.05,0.01-0.08,0.01c-1.45-14.7-2.7-29.01-3.75-42.91c-0.76-10.17-1.44-20.11-2.01-29.83c-0.5-8.46-0.93-16.75-1.28-24.86c-0.26-5.77-0.48-11.44-0.68-17.03c-4.6-133.3,8.36-214.95,9.88-223.98c0.05,0.01,0.09,0.01,0.14,0.02c0.24,0.02,0.47,0.05,0.7,0.07c1.12,0.1,2.23,0.16,3.35,0.16l283.7,0.06h0.01l26.97,0.01l33.21,0.01c0.96,0,1.94-0.03,2.9-0.09c0.93-0.06,1.85-0.11,2.78-0.17l2.37-0.15c0.15-0.01,0.31-0.02,0.46-0.02c0.68,4.71,2.01,14.47,3.55,28.2c0.57,5.06,1.16,10.65,1.76,16.75v0.01C487.46,301.68,494.53,419.84,476.48,531.21z"></path><g id="biscotto_2_"><g><path class="st2" d="M326.47,514.93c-0.01,0.12-0.03,0.24-0.05,0.36c-0.89,6.58-5,12.66-11.73,14.75c-2.83,0.88-5.85,1.02-8.83,1.16c-7.74,0.36-15.49,0.72-23.23,1.08c-1.71,0.08-3.42,0.16-5.12,0.24c-43.71,2.01-87.52,3.86-131.19,1.07c-5.5-0.35-11.11-0.8-16.13-2.93c-8.13-3.45-13.76-11.43-13.9-19.66c-0.06-4.15,1.27-8.26,3.64-11.78c2.33-3.46,5.65-6.34,9.62-8.12c0.01-0.01,0.01-0.01,0.01-0.01l5.12-1.97h0.02l27.76-10.67c12.85-5.88,27.87-5.69,42.23-5.36c10.3,0.23,20.63,0.47,30.82,1.91c7.49,1.06,14.85,2.76,22.25,4.28h0.01c3.42,0.7,6.85,1.37,10.31,1.91c6.59,1.03,13.27,1.62,19.86,2.63h0.01c4.19,0.63,8.32,1.43,12.37,2.6c6.73,1.95,13.33,5.17,18.27,9.72c1.41,1.29,2.68,2.69,3.79,4.21v0.01c0.05,0.07,0.11,0.15,0.15,0.22c0.97,1.35,1.8,2.78,2.47,4.29C326.41,508.01,326.88,511.52,326.47,514.93z"></path></g><path class="st3" d="M326.47,514.93c-0.01,0.12-0.03,0.24-0.05,0.36c-0.89,6.58-5,12.66-11.73,14.75c-2.83,0.88-5.85,1.02-8.83,1.16c-7.74,0.36-15.49,0.72-23.23,1.08c-1.71,0.08-3.42,0.16-5.12,0.24c-22.74-9.25-35.59-25.73-56.8-31.45c-29.24-7.89-91.15-9.97-91.15-9.97l5.12-1.97h0.02l27.76-10.67c12.85-5.88,27.87-5.69,42.23-5.36c10.3,0.23,20.63,0.47,30.82,1.91c7.49,1.06,14.85,2.76,22.25,4.28h0.01c3.42,0.7,6.85,1.37,10.31,1.91c6.59,1.03,13.27,1.62,19.86,2.63h0.01c4.19,0.63,8.32,1.43,12.37,2.6c6.73,1.95,13.33,5.17,18.27,9.72c1.41,1.29,2.68,2.69,3.79,4.21v0.01c0.05,0.07,0.11,0.15,0.15,0.22c0.97,1.35,1.8,2.78,2.47,4.29C326.41,508.01,326.88,511.52,326.47,514.93z"></path><g><path class="st4" d="M196.7,477.41c1.39,0.03,2.83,0,3.56,0.72c0.73,0.72,0.79,1.61,0.78,2.45c-0.02,1.33-0.26,2.78-1.82,3.71c-1.47,0.88-3.73,1.05-5.79,0.98c-1.47-0.05-3.02-0.21-4.12-0.81c-1.23-0.67-1.63-1.76-1.44-2.75c0.19-0.99,0.9-1.92,1.6-2.83C189.47,478.89,190.89,477.27,196.7,477.41z"></path></g><g><path class="st4" d="M221.95,496.29c1.81,0.04,3.7,0,4.66,0.82s1.04,1.83,1.02,2.8c-0.03,1.51-0.35,3.17-2.38,4.23c-1.92,1.01-4.88,1.19-7.58,1.12c-1.92-0.05-3.95-0.24-5.39-0.92c-1.6-0.76-2.13-2-1.88-3.14s1.18-2.19,2.09-3.22C212.49,497.98,214.35,496.13,221.95,496.29z"></path></g><g><path class="st4" d="M251.94,486.49c1.4,0.9,2.23,2.03,2.47,3.17c0.24,1.14-0.31,2.36-1.81,3.22c-1.17,0.67-2.84,1.08-4.57,1.25c-3.21,0.31-6.71-0.24-8.92-1.47c-2.21-1.23-2.99-3.11-1.8-4.67c1.19-1.56,4.35-2.68,7.62-2.63C244.93,485.36,249.43,484.87,251.94,486.49z"></path></g><g><path class="st4" d="M171.29,490.67c2.39,0.27,3.87,1.76,3.83,3.12c-0.04,1.36-1.32,2.62-2.91,3.65c-0.65,0.42-1.37,0.81-2.26,1.06c-1.69,0.46-3.7,0.3-5.54,0.08c-2.18-0.26-4.62-0.74-5.43-1.89c-0.46-0.66-0.27-1.41,0.12-2.09c0.74-1.28,2.16-2.43,4.03-3.27C163.14,491.32,166.11,490.09,171.29,490.67z"></path></g></g><g id="biscotto_1_"><g><path class="st5" d="M458.4,527.34c-4.57,1.97-9.38,3.53-14.35,4.76c-30.59,7.54-67.81,2.36-98.29,0.97c-22.11-1.01-44.65-2.79-65.12-11.35c-10.92-4.57-22.26-12.92-22.83-24.89c-0.29-5.93,2.16-11.43,5.44-16.47h0.01c1.43-2.19,3.01-4.28,4.6-6.29c3.71-4.68,7.57-9.27,11.81-13.44c1.44-1.42,2.91-2.79,4.44-4.09c6.46-5.51,13.75-9.9,21.21-13.88c34.37-18.36,72.89-28.57,111.7-29.74c4.65-0.14,9.31-0.15,13.96-0.03L458.4,527.34z"></path></g><path class="st3" d="M458.4,527.34c-4.57,1.97-9.38,3.53-14.35,4.76c-10.55-9.63-27.44-33.2-74.42-35.77c-43.05-2.36-76.07-24.66-89.96-35.71c1.44-1.42,2.91-2.79,4.44-4.09c6.46-5.51,13.75-9.9,21.21-13.88c34.37-18.36,72.89-28.57,111.7-29.74c4.65-0.14,9.31-0.15,13.96-0.03L458.4,527.34z"></path><g><path class="st6" d="M372.15,474.79c4.05,1.64,6.25,4.81,5.25,7.69c-1,2.88-5.22,5.26-10.07,5.61c-5.74,0.42-11.64-2.2-12.68-5.63c-0.58-1.91,0.2-3.9,1.57-5.66C356.21,476.8,361.6,471.22,372.15,474.79L372.15,474.79z"></path></g><g><path class="st4" d="M312.6,464c1.84,0.05,3.75,0,4.73,1.1c0.98,1.1,1.05,2.46,1.03,3.75c-0.03,2.03-0.35,4.26-2.41,5.68c-1.95,1.35-4.96,1.6-7.69,1.5c-1.95-0.07-4.01-0.33-5.47-1.24c-1.63-1.02-2.16-2.69-1.91-4.21c0.26-1.52,1.19-2.94,2.12-4.32C303,466.26,304.89,463.78,312.6,464z"></path></g><g><path class="st4" d="M372.61,431.59c1.79,0.04,3.65,0,4.61,0.79s1.03,1.78,1.01,2.71c-0.03,1.46-0.34,3.07-2.35,4.1c-1.9,0.97-4.83,1.16-7.49,1.08c-1.9-0.05-3.91-0.23-5.33-0.89c-1.58-0.74-2.11-1.94-1.86-3.04c0.25-1.1,1.16-2.12,2.06-3.12C363.26,433.22,365.1,431.43,372.61,431.59z"></path></g><g><path class="st4" d="M417.45,480.62c3.09,0.43,5,2.84,4.95,5.03c-0.05,2.19-1.7,4.23-3.76,5.89c-0.84,0.67-1.77,1.31-2.92,1.71c-2.19,0.75-4.78,0.49-7.16,0.13c-2.81-0.43-5.97-1.19-7.01-3.06c-0.6-1.07-0.35-2.28,0.16-3.37c0.95-2.06,2.79-3.93,5.21-5.29C406.91,481.66,410.75,479.68,417.45,480.62z"></path></g></g><g id="biscotto_animato_1_1_"><g><path class="st5" d="M463.86,423.33c-1.39,10.16-3.82,20.15-7.27,29.8c-1.94,5.46-4.29,10.91-8.12,15.22c-3.38,3.79-7.76,6.52-12.3,8.73c-19.44,9.5-41.87,10.24-63.41,8.85c-19.01-1.23-38.06-4-56.04-10.4c-17.98-6.39-34.91-16.57-47.58-31.02c-0.28-0.32-0.56-0.65-0.84-0.98c-4.26-5.02-7.98-10.61-9.98-16.89c-5.37-16.85,2.81-35.82,15.97-47.45c9.57-8.45,21.29-13.71,33.49-17.51c0.31-0.1,0.62-0.2,0.93-0.3c4.29-1.31,8.63-2.44,12.95-3.49c11.92-2.87,24.06-5.14,36.31-5.34l24.89,0.48c17.32-1.99,33.57,7.88,48.28,17.36c7.24,4.67,14.54,9.39,20.67,15.5c6.11,6.12,11.03,13.81,12.38,22.41C464.96,413.27,464.55,418.35,463.86,423.33z"></path></g><path class="st3" d="M307.78,361.69c-0.2,8.11-2.96,54.74-39.47,81.84c-4.26-5.02-7.98-10.61-9.98-16.89c-5.37-16.85,2.81-35.82,15.97-47.45C283.86,370.75,295.58,365.49,307.78,361.69z"></path><g><path class="st6" d="M342.06,371.22c3.53,1.64,5.46,4.81,4.58,7.69s-4.56,5.26-8.79,5.61c-5.01,0.42-10.16-2.2-11.07-5.63c-0.51-1.91,0.18-3.9,1.37-5.66C328.15,373.24,332.85,367.65,342.06,371.22"></path></g><g><path class="st4" d="M380.58,402.96c1.8,0.05,3.67,0,4.62,1.07s1.03,2.4,1.01,3.66c-0.03,1.98-0.34,4.15-2.36,5.54c-1.91,1.32-4.84,1.56-7.52,1.46c-1.91-0.07-3.92-0.32-5.35-1.21c-1.59-1-2.11-2.63-1.86-4.11c0.25-1.48,1.17-2.87,2.07-4.22C371.2,405.17,373.05,402.75,380.58,402.96z"></path></g><g><path class="st4" d="M429.7,385.86c2.05,0.06,4.19,0,5.28,1.22c1.09,1.22,1.18,2.74,1.16,4.18c-0.03,2.26-0.39,4.74-2.69,6.32c-2.18,1.5-5.53,1.78-8.59,1.67c-2.18-0.08-4.48-0.36-6.11-1.38c-1.82-1.13-2.42-2.99-2.13-4.68s1.33-3.27,2.37-4.81C418.98,388.38,421.09,385.62,429.7,385.86z"></path></g><g><path class="st4" d="M390.28,446.31c1.44,1.34,2.3,3.03,2.55,4.74c0.25,1.71-0.32,3.53-1.86,4.81c-1.21,1-2.93,1.62-4.71,1.87c-3.31,0.46-6.92-0.36-9.21-2.2c-2.28-1.84-3.08-4.65-1.85-6.98c1.23-2.33,4.49-4.01,7.86-3.93C383.05,444.61,387.68,443.88,390.28,446.31z"></path></g><g><path class="st4" d="M318.35,416.17c3.09,0.43,5,2.84,4.95,5.03c-0.05,2.19-1.7,4.23-3.76,5.89c-0.84,0.67-1.77,1.31-2.92,1.7c-2.19,0.74-4.78,0.48-7.16,0.12c-2.81-0.43-5.97-1.19-7.01-3.06c-0.6-1.07-0.35-2.27,0.16-3.36c0.95-2.06,2.79-3.92,5.21-5.28C307.81,417.21,311.65,415.23,318.35,416.17z"></path></g></g><g id="biscotto_animato_2_1_"><g><path class="st5" d="M300.3,378.51c-4.03,14.42-11.7,27.38-19.59,39.92c-2.97,4.73-5.99,9.44-9.26,13.96c-1.53,2.13-3.12,4.22-4.78,6.24c-25.64,31.26-66.2,44.98-105.41,47.55c-8.13,0.53-16.58,0.59-24.05-2.81c-9.28-4.22-15.81-13.25-20.3-22.77c-4.48-9.49-7.37-20.3-5.42-30.7l6.49-26.2c7.23-18.36,19.1-34.23,30.82-49.83c1.42-1.89,2.84-3.79,4.29-5.67c5.24-6.82,10.77-13.41,17.34-18.77c13.05-10.62,29.41-15.66,45.6-18.97c14.84-3.03,30.22-4.79,45.02-1.59c14.8,3.21,29.08,11.97,36.39,25.86C304.38,347.85,304.34,364.09,300.3,378.51z"></path></g><g><path class="st4" d="M203.54,345.48c0.92,1.44,2.01,2.84,1.11,4.62c-0.89,1.77-2.61,3.12-4.29,4.32c-2.64,1.89-5.69,3.75-8.63,3.53c-2.79-0.21-4.72-2.24-6.06-4.41c-0.95-1.55-1.73-3.34-1.33-5.31c0.45-2.19,2.32-4.17,4.42-5.41c2.1-1.24,4.43-1.86,6.72-2.47C195.48,340.34,199.69,339.44,203.54,345.48z"></path></g><g><path class="st4" d="M220.23,391.81c0.8,1.1,1.76,2.14,0.86,3.84c-0.89,1.71-2.54,3.18-4.14,4.53c-2.52,2.12-5.41,4.27-8.14,4.6c-2.58,0.31-4.3-1.13-5.46-2.79c-0.83-1.18-1.48-2.62-1.04-4.41c0.49-2,2.3-4.06,4.3-5.51c2-1.45,4.18-2.41,6.33-3.34C212.94,388.73,216.88,387.2,220.23,391.81z"></path></g><g><path class="st4" d="M156.24,396.31c3.21-2.42,6.45-5.34,7.35-8.53s-0.6-6.02-3.74-6.24c-1.49-0.11-3.23,0.34-4.91,1.05c-2.33,0.98-4.72,2.57-6.21,4.62c-1.02,1.4-1.56,2.9-1.87,4.32c-0.29,1.35-0.4,2.7,0.11,3.71c0.36,0.71,1.07,1.21,1.98,1.31c0.86,0.09,1.67,0.28,2.38,0.59C152.41,397.6,154.17,397.87,156.24,396.31z"></path></g><g><path class="st4" d="M171.4,421.92c2.13,0.59,3.83,1.81,4.91,3.37s1.37,3.66,0.41,5.72c-0.76,1.62-2.23,3.12-3.94,4.28c-3.18,2.17-7.29,3.22-10.52,2.59c-3.23-0.64-5.41-3.01-5.28-5.94c0.14-2.94,2.68-6.29,6.17-7.96C163.15,423.98,167.57,420.87,171.4,421.92z"></path></g><g><path class="st4" d="M255.65,345.44c1.54,1.52,1.17,4.83-0.22,7.25c-1.39,2.42-3.62,4.12-5.85,5.26c-0.91,0.46-1.85,0.86-2.77,0.91c-1.74,0.09-3.1-1.07-4.27-2.27c-1.38-1.42-2.76-3.33-2.22-5.76c0.31-1.39,1.21-2.64,2.18-3.68c1.84-1.97,4.06-3.41,6.33-4.11C248.84,343.03,252.31,342.13,255.65,345.44z"></path></g></g><g id="biscotto"><g><path class="st2" d="M479.04,515.75c-1.37,9.28-9.06,16.26-17.9,15.76c-8.8-0.5-16.57-7.16-21.06-15.26c-4.59-8.28-6.35-17.93-7.87-27.4c-5.85-36.63-8.96-74.78,0.63-110.48c3.09-11.5,7.61-22.84,15.17-31.71c3.83-4.5,11.04-11.26,16.22-13.81c7.78-3.83,16.83,1.66,17.87,10.71C485.5,373.13,489.11,447.36,479.04,515.75z"></path></g><g><path class="st4" d="M477.32,429.1c1.02,0.07,2.08,0,2.62,1.51c0.54,1.5,0.58,3.37,0.57,5.14c-0.02,2.78-0.19,5.83-1.34,7.78c-1.08,1.85-2.75,2.19-4.27,2.05c-1.08-0.1-2.22-0.45-3.03-1.7c-0.9-1.4-1.2-3.68-1.06-5.76c0.14-2.08,0.66-4.02,1.18-5.92C472,432.19,473.05,428.8,477.32,429.1z"></path></g><g class="st7"><path class="st8" d="M472.82,431.3c1.95,0,4.04-0.4,5.25-2.52c1.2-2.12,1.32-5.47,0.09-7.65c-0.59-1.04-1.42-1.77-2.29-2.24c-1.21-0.66-2.61-0.84-3.76-0.06c-0.78,0.53-1.4,1.46-1.89,2.46c-0.47,0.95-0.87,2.03-0.92,3.21c-0.04,0.83,0.12,1.7,0.48,2.37c0.33,0.63,0.61,1.3,0.83,2.02C470.91,429.96,471.57,431.3,472.82,431.3z"></path></g><g><path class="st4" d="M474.86,478c0.81,1.46,1.3,3.29,1.45,5.15c0.15,1.86-0.16,3.84-1.01,5.24c-0.67,1.1-1.62,1.77-2.61,2.04c-1.84,0.51-3.86-0.37-5.14-2.36c-1.28-1.99-1.74-5.05-1.08-7.58c0.67-2.53,2.48-4.37,4.35-4.31C470.82,476.17,473.4,475.37,474.86,478z"></path></g><g><path class="st4" d="M469.47,381c1.81,0.52,2.92,3.42,2.89,6.06s-0.99,5.1-2.2,7.1c-0.49,0.81-1.03,1.58-1.71,2.06c-1.28,0.9-2.79,0.58-4.18,0.15c-1.64-0.51-3.48-1.44-4.09-3.69c-0.35-1.29-0.2-2.74,0.09-4.06c0.56-2.49,1.63-4.73,3.04-6.37C463.32,382.25,465.56,379.86,469.47,381z"></path></g></g><path id="overlay" class="st9" d="M476.48,531.21c-0.15,0-0.28-0.01-0.42-0.01H475l-179.16-0.02h-23.93l-40.89-0.01h-49.28l-60.72-0.01c-1.18,0-2.36,0.06-3.53,0.18c-0.12,0.01-0.24,0.02-0.36,0.03c-0.03,0-0.05,0.01-0.08,0.01c-1.45-14.7-2.7-29.01-3.75-42.91c-0.76-10.17-1.44-20.11-2.01-29.83c-0.5-8.46-0.93-16.75-1.28-24.86c-0.26-5.77-0.48-11.44-0.68-17.03c-4.6-133.3,8.36-214.95,9.88-223.98c0.05,0.01,0.09,0.01,0.14,0.02c0.24,0.02,0.47,0.05,0.7,0.07c1.12,0.1,2.23,0.16,3.35,0.16l283.7,0.06h0.01l26.97,0.01l33.21,0.01c0.96,0,1.94-0.03,2.9-0.09c0.93-0.06,1.85-0.11,2.78-0.17l2.37-0.15c0.15-0.01,0.31-0.02,0.46-0.02c0.68,4.71,2.01,14.47,3.55,28.2c0.57,5.06,1.16,10.65,1.76,16.75v0.01C487.46,301.68,494.53,419.84,476.48,531.21z"></path><g id="riflessi_7_"><path class="st10" d="M483.38,262.95L392.2,208.1l35.12,0.01l54.14,33.21C482.11,248.01,482.76,255.24,483.38,262.95z"></path><polygon id="riflesso_barattolo_in_basso_1_" class="st11" points="231.03,531.18 181.74,531.18 113.29,488.48 106.23,484.08 106.41,455.7 111.28,458.65 	"></polygon><polygon id="riflesso_barattolo_a_metà_1_" class="st11" points="295.84,531.19 271.92,531.19 110,433.79 106.23,431.52 106.34,414.93 109.32,416.76 	"></polygon></g><path id="base_barattolo_2_" class="st12" d="M495.24,544.98c-0.08,0.52-0.23,1.05-0.55,1.58c-2.74,4.56-7.53,7.74-13.01,8.83c-2.92,0.58-5.93,0.82-8.91,1.05c-0.09,0-0.18,0.01-0.27,0.01l-353.02,0.25c-0.07,0-0.15,0-0.23-0.01l-4.94-0.32c-4.7-0.3-9.53-0.63-13.56-3.19c-1.74-1.1-3.18-2.61-3.94-4.44c-0.43-1.03-0.63-2.03-0.63-3.01c0-4.57,4.27-8.47,8.69-10.73c3.78-1.92,7.91-3.14,12.16-3.62c0.03,0,0.05-0.01,0.08-0.01c0.13-0.02,0.25-0.02,0.36-0.03c1.17-0.12,2.35-0.18,3.53-0.18L475,531.2h1.06c0.14,0,0.27,0.01,0.42,0.01c3.52,0.08,7.39,0.08,10.41,2.02c2.86,1.82,5.08,4.36,7.03,7.04C494.95,541.66,495.48,543.33,495.24,544.98z"></path><path id="collo_barattolo_2_" class="st12" d="M488.76,205.63c-2.07,2.23-5.58,2.58-8.74,2.78c-1.41,0.08-2.82,0.17-4.23,0.26c-0.15,0.01-0.31,0.02-0.46,0.02l-2.37,0.15c-0.93,0.06-1.85,0.11-2.78,0.17c-0.96,0.06-1.94,0.09-2.9,0.09l-343.89-0.07c-1.12,0-2.23-0.06-3.35-0.16c-0.23-0.02-0.46-0.05-0.7-0.07c-0.05-0.01-0.09-0.01-0.14-0.02c-0.94-0.1-1.86-0.24-2.79-0.38c-2.14-0.35-4.35-0.47-6.46-1.01c-3.15-0.8-6.08-2.59-7.83-5.17c-1.74-2.57-2.22-5.95-0.92-8.75c1.7-3.63,5.81-5.65,9.64-7.38c0.04-0.02,0.08-0.04,0.12-0.06c5.97-2.71,12.52-4.1,19.15-4.12l333.14-0.58c6.97-0.44,14.06,0.92,20.28,3.91c1.27,0.61,2.53,1.3,3.53,2.25c2.79,2.6,3.31,6.58,3.52,10.25C490.74,200.49,490.7,203.55,488.76,205.63z"></path><g id="coperchio_4_"><path id="coperchio_8_" class="st1" d="M474.02,181.49c6.72-0.23,9.61-0.08,13.06-3.42c3.43-3.33,3.54-8.03,2.42-12.52c-2.09-8.39-8.93-15.23-16.92-19.57c-7.99-4.33-17.1-6.49-26.12-8.36c-28.08-5.82-56.7-9.41-85.43-10.71c-3.95-0.18-10.15-0.24-13.24-2.55c-5.24-3.9-2.56-11.52-1.71-17.72c1.55-11.26-0.94-23.03-6.22-32.58c-3.87-6.99-11.46-11.94-19.21-15.05c-13.6-5.47-28-4.6-41.4-2.14c-13.4,2.45-25.93,11.8-30.73,23.72c-4,9.94-3.06,21.29,1.32,31.12c0.91,2.03,1.41,4.71,1.12,6.89c-0.7,5.14-4.4,5.87-7.96,6.33c-41.78,5.4-85.32,5.43-123.99,21.14c-8.96,3.64-18.73,9.72-18.97,18.84c-0.19,7.34,6.28,13.19,13.77,15.45c7.16,2.16,14.93,1.97,22.55,1.78c0.6-0.01,1.22-0.01,1.81-0.01L474.02,181.49z"></path><g id="riflesso_coperchio_2_" class="st13"><path class="st14" d="M274.75,123.48c3.64-0.52,7.23-0.69,10.81-0.79c3.58-0.08,7.14-0.04,10.7,0.06c3.55,0.09,7.1,0.3,10.64,0.48c1.77,0.09,3.54,0.21,5.31,0.27c1.79,0.12,3.51,0.1,5.36-0.02c-1.56,0.97-3.39,1.55-5.17,1.98c-1.8,0.45-3.6,0.7-5.42,0.92c-3.62,0.4-7.24,0.47-10.85,0.37c-3.61-0.11-7.2-0.43-10.77-0.93C281.8,125.3,278.25,124.61,274.75,123.48z"></path></g></g></svg>